<svg xmlns="http://www.w3.org/2000/svg" xmlns:xlink="http://www.w3.org/1999/xlink" version="1.1" width="256" height="256" viewBox="0 0 256 256" xml:space="preserve">

<defs>
</defs>
<g style="stroke: none; stroke-width: 0; stroke-dasharray: none; stroke-linecap: butt; stroke-linejoin: miter; stroke-miterlimit: 10; fill: none; fill-rule: nonzero; opacity: 1;" transform="translate(1.4065934065934016 1.4065934065934016) scale(2.81 2.81)" >
	<path d="M 73.152 61.607 c -4.469 0 -8.104 -3.635 -8.104 -8.104 s 3.635 -8.104 8.104 -8.104 s 8.104 3.636 8.104 8.104 S 77.621 61.607 73.152 61.607 z M 73.152 47.399 c -3.365 0 -6.104 2.738 -6.104 6.104 c 0 3.365 2.738 6.104 6.104 6.104 c 3.366 0 6.104 -2.738 6.104 -6.104 C 79.257 50.138 76.519 47.399 73.152 47.399 z" style="stroke: none; stroke-width: 1; stroke-dasharray: none; stroke-linecap: butt; stroke-linejoin: miter; stroke-miterlimit: 10; fill: rgb(0,0,0); fill-rule: nonzero; opacity: 1;" transform=" matrix(1 0 0 1 0 0) " stroke-linecap="round" />
	<path d="M 17.985 61.607 c -4.469 0 -8.104 -3.635 -8.104 -8.104 s 3.635 -8.104 8.104 -8.104 s 8.104 3.636 8.104 8.104 S 22.454 61.607 17.985 61.607 z M 17.985 47.399 c -3.366 0 -6.104 2.738 -6.104 6.104 c 0 3.365 2.738 6.104 6.104 6.104 s 6.104 -2.738 6.104 -6.104 C 24.089 50.138 21.351 47.399 17.985 47.399 z" style="stroke: none; stroke-width: 1; stroke-dasharray: none; stroke-linecap: butt; stroke-linejoin: miter; stroke-miterlimit: 10; fill: rgb(0,0,0); fill-rule: nonzero; opacity: 1;" transform=" matrix(1 0 0 1 0 0) " stroke-linecap="round" />
	<path d="M 45.728 41.436 c -0.158 0 -0.314 -0.002 -0.468 -0.007 l -15.702 -0.765 c -1.287 -0.038 -7.914 -0.25 -10.069 -0.676 c -0.352 -0.069 -0.639 -0.322 -0.753 -0.661 c -0.115 -0.34 -0.039 -0.715 0.199 -0.983 l 5.875 -6.633 c -5.499 1.414 -10.703 3.938 -15.216 7.437 c -0.436 0.338 -1.064 0.258 -1.403 -0.178 c -0.338 -0.437 -0.259 -1.065 0.178 -1.403 c 5.545 -4.298 12.088 -7.193 18.956 -8.455 c 0.062 -0.017 0.124 -0.029 0.188 -0.034 c 2.522 -0.452 5.087 -0.684 7.663 -0.684 h 8.041 c 0.945 0 1.867 0.331 2.596 0.933 l 10.008 8.259 c 0.269 0.222 0.402 0.567 0.354 0.911 c -0.049 0.345 -0.273 0.639 -0.592 0.778 C 52.471 40.623 48.745 41.436 45.728 41.436 z M 21.688 38.25 c 2.312 0.207 5.811 0.352 7.948 0.415 l 15.702 0.765 c 2.289 0.071 5.253 -0.462 7.896 -1.387 l -8.695 -7.175 c -0.372 -0.307 -0.841 -0.476 -1.323 -0.476 h -8.041 c -2.373 0 -4.737 0.206 -7.065 0.609 L 21.688 38.25 z" style="stroke: none; stroke-width: 1; stroke-dasharray: none; stroke-linecap: butt; stroke-linejoin: miter; stroke-miterlimit: 10; fill: rgb(0,0,0); fill-rule: nonzero; opacity: 1;" transform=" matrix(1 0 0 1 0 0) " stroke-linecap="round" />
	<path d="M 66.705 57.486 H 24.434 c -0.552 0 -1 -0.447 -1 -1 s 0.448 -1 1 -1 h 42.271 c 0.553 0 1 0.447 1 1 S 67.258 57.486 66.705 57.486 z" style="stroke: none; stroke-width: 1; stroke-dasharray: none; stroke-linecap: butt; stroke-linejoin: miter; stroke-miterlimit: 10; fill: rgb(0,0,0); fill-rule: nonzero; opacity: 1;" transform=" matrix(1 0 0 1 0 0) " stroke-linecap="round" />
	<path d="M 79.593 57.486 c -0.505 0 -0.938 -0.381 -0.993 -0.895 c -0.059 -0.549 0.339 -1.041 0.889 -1.1 l 6.494 -0.69 C 87.133 54.68 88 53.715 88 52.558 v -8.192 c 0 -0.646 -0.484 -1.191 -1.127 -1.267 l -31.808 -3.75 c -0.549 -0.064 -0.94 -0.562 -0.876 -1.11 c 0.064 -0.548 0.557 -0.945 1.11 -0.876 l 31.808 3.75 C 88.756 41.306 90 42.705 90 44.365 v 8.192 c 0 2.183 -1.637 4.002 -3.807 4.232 l -6.494 0.69 C 79.663 57.484 79.628 57.486 79.593 57.486 z" style="stroke: none; stroke-width: 1; stroke-dasharray: none; stroke-linecap: butt; stroke-linejoin: miter; stroke-miterlimit: 10; fill: rgb(0,0,0); fill-rule: nonzero; opacity: 1;" transform=" matrix(1 0 0 1 0 0) " stroke-linecap="round" />
	<path d="M 73.149 54.5 c -0.13 0 -0.26 -0.021 -0.38 -0.07 s -0.229 -0.13 -0.319 -0.22 c -0.19 -0.19 -0.301 -0.44 -0.301 -0.71 c 0 -0.13 0.03 -0.26 0.08 -0.38 c 0.051 -0.12 0.12 -0.23 0.221 -0.32 c 0.369 -0.38 1.04 -0.38 1.409 0 c 0.091 0.09 0.16 0.2 0.221 0.32 c 0.05 0.12 0.069 0.25 0.069 0.38 c 0 0.27 -0.1 0.52 -0.29 0.71 c -0.09 0.09 -0.199 0.17 -0.329 0.22 C 73.41 54.479 73.28 54.5 73.149 54.5 z" style="stroke: none; stroke-width: 1; stroke-dasharray: none; stroke-linecap: butt; stroke-linejoin: miter; stroke-miterlimit: 10; fill: rgb(0,0,0); fill-rule: nonzero; opacity: 1;" transform=" matrix(1 0 0 1 0 0) " stroke-linecap="round" />
	<path d="M 17.99 54.5 c -0.27 0 -0.52 -0.101 -0.71 -0.29 c -0.19 -0.19 -0.3 -0.44 -0.3 -0.71 c 0 -0.26 0.11 -0.521 0.3 -0.7 c 0.09 -0.1 0.2 -0.17 0.32 -0.22 c 0.37 -0.15 0.82 -0.061 1.09 0.22 c 0.09 0.09 0.17 0.2 0.22 0.32 c 0.05 0.12 0.07 0.25 0.07 0.38 c 0 0.27 -0.1 0.52 -0.29 0.71 C 18.5 54.399 18.25 54.5 17.99 54.5 z" style="stroke: none; stroke-width: 1; stroke-dasharray: none; stroke-linecap: butt; stroke-linejoin: miter; stroke-miterlimit: 10; fill: rgb(0,0,0); fill-rule: nonzero; opacity: 1;" transform=" matrix(1 0 0 1 0 0) " stroke-linecap="round" />
	<path d="M 11.537 57.486 c -0.113 0 -0.229 -0.02 -0.341 -0.061 l -8.716 -3.165 C 0.996 53.722 0 52.3 0 50.723 V 39.781 c 0 -1.337 1.088 -2.425 2.425 -2.425 h 6.557 c 0.552 0 1 0.448 1 1 s -0.448 1 -1 1 H 2.425 C 2.19 39.356 2 39.546 2 39.781 v 10.942 c 0 0.739 0.467 1.406 1.163 1.659 l 8.715 3.165 c 0.519 0.188 0.787 0.762 0.599 1.281 C 12.329 57.234 11.945 57.486 11.537 57.486 z" style="stroke: none; stroke-width: 1; stroke-dasharray: none; stroke-linecap: butt; stroke-linejoin: miter; stroke-miterlimit: 10; fill: rgb(0,0,0); fill-rule: nonzero; opacity: 1;" transform=" matrix(1 0 0 1 0 0) " stroke-linecap="round" />
</g>
</svg>